<svg clip-rule="evenodd" fill-rule="evenodd" image-rendering="optimizeQuality" shape-rendering="geometricPrecision" text-rendering="geometricPrecision" viewBox="0 0 21.0001 21.0001" xmlns="http://www.w3.org/2000/svg"><g id="&#x56FE;&#x5C42;_x0020_1"><path d="m0 0h21v21h-21z" fill="none"/><path d="m3.28643 1.31775h15.4443c.52405 0 .95152.42747.95152.95152v.05736c0 .52405-.42747.95152-.95152.95152h-14.4692c-.54211 0-.9843.4422-.9843.9843 0 .54211.4422.9843.9843.9843h.9843v5.90581l1.4761-1.18033 1.47703 1.18033v-5.90581h11.4833v12.4668c0 1.08429-.88439 1.96868-1.96868 1.96868h-14.4271c-1.08429 0-1.96868-.88439-1.96868-1.96868v-14.4271c0-1.08429.88439-1.96868 1.96868-1.96868l.00001-.00001z" fill="#ff1f1f"/></g></svg>