<svg xmlns="http://www.w3.org/2000/svg" viewBox="0 0 32 32" width="32" height="32">
  <!-- Background circle with gradient -->
  <defs>
    <linearGradient id="bg" x1="0%" y1="0%" x2="100%" y2="100%">
      <stop offset="0%" style="stop-color:#0d6efd;stop-opacity:1" />
      <stop offset="100%" style="stop-color:#0a58ca;stop-opacity:1" />
    </linearGradient>
  </defs>
  
  <circle cx="16" cy="16" r="16" fill="url(#bg)"/>
  
  <!-- Library book stack -->
  <g>
    <!-- Bottom book -->
    <rect x="6" y="18" width="20" height="3" rx="0.5" fill="#dc3545"/>
    <rect x="6" y="18" width="2" height="3" rx="0.5" fill="#b02a37"/>
    
    <!-- Middle book -->
    <rect x="7" y="15" width="18" height="3" rx="0.5" fill="#198754"/>
    <rect x="7" y="15" width="2" height="3" rx="0.5" fill="#146c43"/>
    
    <!-- Top book -->
    <rect x="8" y="12" width="16" height="3" rx="0.5" fill="#fd7e14"/>
    <rect x="8" y="12" width="2" height="3" rx="0.5" fill="#e8590c"/>
    
    <!-- Open book on top -->
    <path d="M10 8 L16 8 L16 12 L10 11 Z" fill="white"/>
    <path d="M16 8 L22 8 L22 11 L16 12 Z" fill="#f8f9fa"/>
    
    <!-- Book pages -->
    <line x1="16" y1="8" x2="16" y2="12" stroke="#dee2e6" stroke-width="0.5"/>
    <line x1="12" y1="9.5" x2="15" y2="9.2" stroke="#6c757d" stroke-width="0.3"/>
    <line x1="12" y1="10.5" x2="15" y2="10.2" stroke="#6c757d" stroke-width="0.3"/>
    <line x1="17" y1="9.2" x2="20" y2="9.5" stroke="#6c757d" stroke-width="0.3"/>
    <line x1="17" y1="10.2" x2="20" y2="10.5" stroke="#6c757d" stroke-width="0.3"/>
  </g>
</svg>
